<?xml version="1.0" encoding="utf-8"?>
<!-- Generator: Adobe Illustrator 16.0.3, SVG Export Plug-In . SVG Version: 6.00 Build 0)  -->
<!DOCTYPE svg PUBLIC "-//W3C//DTD SVG 1.1//EN" "http://www.w3.org/Graphics/SVG/1.1/DTD/svg11.dtd">
<svg version="1.1" id="Layer_1" xmlns="http://www.w3.org/2000/svg" xmlns:xlink="http://www.w3.org/1999/xlink" x="0px" y="0px"
	 width="21px" height="19px" viewBox="0 0 21 19" enable-background="new 0 0 21 19" xml:space="preserve">
<path fill="#FFFFFF" d="M19.918,5.182c-0.003-0.174-0.108-0.327-0.269-0.392c-0.162-0.063-0.344-0.027-0.465,0.098l-7.658,5.746
	L9.538,8.788l9.513-7.691c0.166-0.169,0.162-0.441-0.008-0.606c-0.169-0.166-0.441-0.161-0.606,0.008L8.618,8.504
	c0,0.003-0.001,0.003-0.002,0.005c-0.001,0-0.003,0.001-0.004,0.002C8.586,8.537,8.571,8.572,8.555,8.603
	C8.546,8.62,8.531,8.634,8.524,8.651l-1.587,4.204c-0.06,0.16-0.02,0.341,0.104,0.457c0.124,0.12,0.307,0.152,0.464,0.088
	l4.204-1.775l0,0c0.007-0.002,0.012-0.01,0.021-0.013c0.043-0.024,0.084-0.047,0.118-0.081L19.08,6.22l0.169,10.363
	c0,0.486-0.109,0.836-0.322,1.043c-0.229,0.219-0.521,0.207-0.556,0.21H3.665c-0.569,0-1.16-0.433-1.16-1.159V2.758
	c0-0.569,0.435-1.157,1.16-1.157h10.968c0.238,0,0.429-0.191,0.429-0.43c0-0.239-0.191-0.43-0.429-0.43H3.665
	c-1.131,0-2.017,0.886-2.017,2.016v13.918c0,1.133,0.886,2.018,2.017,2.018l14.674-0.001c0.01,0.001,0.032,0.002,0.065,0.002
	c0.181,0,0.676-0.039,1.098-0.432c0.401-0.372,0.604-0.938,0.604-1.688L19.918,5.182z M9.1,9.551l1.661,1.545l-2.671,1.13L9.1,9.551
	z"/>
</svg>
