<?xml version="1.0" encoding="utf-8"?>
<!-- Generator: Adobe Illustrator 16.0.3, SVG Export Plug-In . SVG Version: 6.00 Build 0)  -->
<!DOCTYPE svg PUBLIC "-//W3C//DTD SVG 1.1//EN" "http://www.w3.org/Graphics/SVG/1.1/DTD/svg11.dtd">
<svg version="1.1" id="Layer_1" xmlns="http://www.w3.org/2000/svg" xmlns:xlink="http://www.w3.org/1999/xlink" x="0px" y="0px"
	 width="54px" height="55.333px" viewBox="0 0 54 55.333" enable-background="new 0 0 54 55.333" xml:space="preserve">
<g>
	<path fill="#FFFFFF" d="M18.569,53.571c-0.643,0-1.248-0.115-1.797-0.342c-2.163-0.891-3.09-3.213-3.986-5.457
		c-0.569-1.428-1.104-2.768-1.874-3.535c-0.087-0.086-0.193-0.162-0.298-0.24l-0.138-0.102l-1.078-0.666
		c-0.688-0.355-1.446-0.666-2.17-0.959c-2.2-0.879-4.475-1.789-5.332-3.854c-0.86-2.062,0.095-4.318,1.019-6.498
		c0.588-1.393,1.198-2.834,1.194-4c-0.003-1.082-0.577-2.4-1.183-3.797c-0.973-2.234-1.973-4.529-1.078-6.695
		c0.89-2.164,3.212-3.09,5.46-3.986c1.435-0.572,2.766-1.105,3.528-1.869c0.818-0.824,1.398-2.27,1.959-3.67
		c0.886-2.215,1.795-4.488,3.855-5.35c0.528-0.221,1.115-0.334,1.743-0.334c1.558,0,3.177,0.684,4.741,1.346
		c1.406,0.596,2.841,1.205,4.01,1.205c1.094-0.004,2.414-0.578,3.812-1.186c1.615-0.701,3.264-1.416,4.885-1.416
		c0.646,0,1.252,0.115,1.8,0.34c2.161,0.891,3.089,3.211,3.985,5.457c0.57,1.43,1.104,2.77,1.873,3.533
		c0.824,0.82,2.275,1.402,3.68,1.965c2.205,0.883,4.479,1.795,5.337,3.855c0.863,2.066-0.093,4.32-1.017,6.5
		c-0.59,1.395-1.2,2.834-1.195,4.002c0.002,1.086,0.578,2.41,1.188,3.812c0.967,2.217,1.966,4.51,1.073,6.676
		c-0.89,2.166-3.214,3.092-5.46,3.986c-0.514,0.205-1.042,0.416-1.535,0.639l0.04,0.104l-1.318,0.574
		c-0.301,0.193-0.536,0.375-0.72,0.557c-0.817,0.824-1.398,2.277-1.96,3.682c-0.88,2.199-1.79,4.473-3.854,5.334
		c-0.532,0.223-1.118,0.336-1.741,0.336c-1.567,0-3.23-0.705-4.698-1.328l-1.246-0.512c-0.828-0.328-1.901-0.709-2.804-0.709
		c-0.766,0-1.652,0.307-2.34,0.572l-1.485,0.615C21.844,52.854,20.196,53.571,18.569,53.571z M10.565,42.712l0.676,0.438
		c0.147,0.109,0.293,0.221,0.415,0.342c0.924,0.92,1.499,2.359,2.106,3.881c0.818,2.051,1.661,4.162,3.412,4.883
		c0.422,0.174,0.891,0.264,1.395,0.264c1.407,0,2.953-0.674,4.449-1.326l1.521-0.629c0.83-0.322,1.795-0.648,2.73-0.648
		c1.074,0,2.22,0.398,3.198,0.785l1.258,0.516c1.381,0.586,2.939,1.248,4.292,1.248c0.483,0,0.932-0.084,1.335-0.254
		c1.655-0.691,2.48-2.756,3.28-4.754c0.602-1.502,1.223-3.057,2.195-4.035c0.246-0.244,0.551-0.48,0.934-0.723l0.071-0.037
		l0.31-0.135l-0.038-0.057l0.544-0.27c0.653-0.32,1.371-0.607,2.066-0.885c2.043-0.814,4.155-1.656,4.875-3.41
		c0.724-1.752-0.186-3.838-1.063-5.854c-0.655-1.504-1.273-2.926-1.276-4.23c-0.004-1.381,0.648-2.924,1.277-4.414
		c0.841-1.98,1.708-4.027,1.016-5.686c-0.687-1.65-2.752-2.479-4.749-3.277c-1.509-0.605-3.062-1.227-4.039-2.199
		c-0.923-0.918-1.495-2.357-2.103-3.879c-0.82-2.053-1.664-4.164-3.414-4.885c-0.419-0.172-0.889-0.26-1.396-0.26
		c-1.402,0-2.949,0.67-4.443,1.318c-1.521,0.662-2.939,1.279-4.252,1.283c-1.386,0-2.921-0.652-4.405-1.281
		c-1.483-0.627-3.004-1.27-4.348-1.27c-0.487,0-0.937,0.086-1.337,0.252c-1.651,0.691-2.477,2.756-3.276,4.754
		c-0.606,1.512-1.228,3.061-2.197,4.035c-0.917,0.92-2.347,1.492-3.859,2.096c-2.069,0.824-4.182,1.668-4.901,3.42
		c-0.723,1.752,0.185,3.84,1.062,5.857c0.659,1.514,1.273,2.93,1.279,4.229c0.002,1.381-0.649,2.924-1.279,4.416
		c-0.839,1.979-1.706,4.025-1.016,5.682c0.688,1.654,2.754,2.48,4.751,3.279c0.831,0.336,1.786,0.729,2.606,1.184l0.348,0.193
		L10.565,42.712z"/>
	<path fill="#FFFFFF" d="M37.868,23.622c-1.156,0-2.094,0.938-2.094,2.094c0,0.314,0.07,0.613,0.194,0.883l-4.558,3.48l-3.182-7.477
		c0.615-0.363,1.029-1.035,1.029-1.803c0-1.156-0.938-2.094-2.096-2.094c-1.156,0-2.094,0.938-2.094,2.094
		c0,0.746,0.391,1.402,0.979,1.773l-3.22,7.418l-4.475-3.307c0.182-0.309,0.285-0.67,0.285-1.055c0-1.158-0.938-2.096-2.096-2.096
		c-1.155,0-2.094,0.938-2.094,2.096c0,1.156,0.938,2.094,2.094,2.094c0.07,0,0.141-0.004,0.208-0.01l-0.003,0.068l3.724,9.25h13.236
		l3.753-9.191l0.021-0.066c0.125,0.023,0.253,0.035,0.385,0.035c1.158,0,2.094-0.936,2.094-2.094
		C39.961,24.56,39.026,23.622,37.868,23.622z"/>
</g>
</svg>
