<?xml version="1.0" encoding="utf-8"?>
<!-- Generator: Adobe Illustrator 16.0.0, SVG Export Plug-In . SVG Version: 6.00 Build 0)  -->
<!DOCTYPE svg PUBLIC "-//W3C//DTD SVG 1.1//EN" "http://www.w3.org/Graphics/SVG/1.1/DTD/svg11.dtd">
<svg version="1.1" id="Layer_1" xmlns="http://www.w3.org/2000/svg" xmlns:xlink="http://www.w3.org/1999/xlink" x="0px" y="0px"
	 width="79.208px" height="14.238px" viewBox="0 0 79.208 14.238" enable-background="new 0 0 79.208 14.238" xml:space="preserve">
<g>
	<g>
		<g>
			<g>
				<path fill="#FFFFFF" d="M8.306,0.492C7.988,0.174,7.566,0,7.117,0C6.669,0,6.247,0.174,5.93,0.492L0.49,5.932
					c-0.654,0.656-0.654,1.719,0,2.375l5.439,5.439c0.317,0.32,0.739,0.492,1.188,0.492c0.449,0,0.871-0.172,1.188-0.492
					l5.439-5.439c0.317-0.318,0.492-0.738,0.492-1.188c0-0.447-0.175-0.869-0.492-1.188L8.306,0.492z M12.901,7.607l-5.296,5.295
					c-0.261,0.262-0.715,0.262-0.975,0L1.335,7.607C1.067,7.34,1.067,6.9,1.334,6.633l5.297-5.297
					C6.635,1.332,6.64,1.328,6.646,1.324v4.389C6.43,5.785,6.23,5.902,6.065,6.068C5.784,6.348,5.629,6.721,5.629,7.119
					s0.155,0.771,0.437,1.053c0.28,0.281,0.654,0.436,1.052,0.436S7.89,8.455,8.171,8.172c0.58-0.58,0.58-1.523,0-2.105
					C8.005,5.9,7.806,5.785,7.591,5.713V1.324C7.595,1.328,7.6,1.332,7.605,1.336l5.296,5.297c0.13,0.129,0.2,0.303,0.2,0.486
					S13.031,7.477,12.901,7.607z"/>
			</g>
		</g>
		<g>
			<path fill="#FFFFFF" d="M78.884,7.881c-0.311-0.455-0.797-0.773-1.35-1.02c-0.539-0.234-1.174-0.393-1.863-0.516h-0.027
				c-0.729-0.123-1.334-0.322-1.688-0.541c-0.174-0.109-0.297-0.223-0.364-0.318c-0.067-0.098-0.095-0.197-0.095-0.344
				c0-0.26,0.148-0.531,0.516-0.775c0.363-0.246,0.902-0.418,1.51-0.418c0.824,0,1.484,0.369,2.174,0.785
				c0.324,0.197,0.756,0.113,0.959-0.184c0.215-0.281,0.121-0.674-0.189-0.871c-0.688-0.406-1.646-0.984-2.943-0.984
				c-0.877,0-1.701,0.234-2.334,0.652c-0.623,0.418-1.08,1.055-1.08,1.795c0,0.367,0.107,0.713,0.309,1.006
				c0.297,0.43,0.744,0.738,1.256,0.959s1.107,0.369,1.742,0.479h0.027c0.795,0.137,1.459,0.344,1.85,0.578
				c0.201,0.123,0.324,0.244,0.404,0.367c0.082,0.125,0.121,0.234,0.121,0.395c0,0.309-0.174,0.615-0.58,0.885
				c-0.404,0.27-1.012,0.453-1.688,0.453c-0.959,0.014-1.984-0.504-2.578-0.945c-0.298-0.221-0.742-0.184-0.986,0.086
				c-0.229,0.27-0.189,0.676,0.109,0.896c0.77,0.557,1.996,1.219,3.455,1.229c0.958,0,1.836-0.256,2.498-0.699
				c0.674-0.443,1.16-1.117,1.16-1.904C79.208,8.545,79.087,8.176,78.884,7.881z"/>
		</g>
		<g>
			<path fill="#FFFFFF" d="M45.899,7.279l-0.904-1.131l-2.281-2.826c-0.23-0.318-0.703-0.381-1.027-0.148
				c-0.338,0.211-0.404,0.627-0.176,0.936l2.566,3.17l-2.566,3.193c-0.229,0.295-0.162,0.727,0.176,0.934
				c0.121,0.088,0.27,0.137,0.432,0.137c0.23,0,0.445-0.111,0.596-0.285l2.281-2.836l2.434,3.047
				c0.141,0.178,0.363,0.266,0.57,0.266c0.154,0,0.336-0.07,0.465-0.174c0.305-0.242,0.33-0.686,0.084-0.988L45.899,7.279z"/>
		</g>
		<g>
			<path fill="#FFFFFF" d="M67.714,10.141c-0.016-0.002-1.016-0.002-1.029-0.002c-0.383,0-0.826-0.219-0.826-0.836v-6.84
				c0-0.404-0.328-0.73-0.732-0.73c-0.389,0-0.73,0.342-0.73,0.73v6.84c0,1.354,0.898,2.227,2.289,2.227c0.016,0,1.02,0,1.037,0
				c0.361-0.027,0.645-0.328,0.645-0.695S68.077,10.162,67.714,10.141z"/>
		</g>
		<g>
			<g>
				<path fill="#FFFFFF" d="M56.505,2.955c-2.184,0-3.961,1.93-3.961,4.305c0,2.352,1.777,4.27,3.961,4.27
					c1.342,0,2.576-0.732,3.305-1.959c0.176-0.316,0.088-0.711-0.221-0.947c-0.102-0.063-0.217-0.096-0.338-0.096
					c-0.232,0-0.441,0.125-0.555,0.33c-0.457,0.805-1.297,1.303-2.191,1.303c-1.324,0-2.424-1.053-2.619-2.479h5.893
					c0.367,0,0.656-0.285,0.656-0.652l-0.002-0.086C60.265,4.672,58.577,2.955,56.505,2.955z M53.981,6.33
					c0.357-1.209,1.35-2.006,2.523-2.006c1.152,0,2.148,0.814,2.482,2.006H53.981z"/>
			</g>
		</g>
		<g>
			<g>
				<path fill="#FFFFFF" d="M33.961,2.955c-2.184,0-3.96,1.93-3.96,4.305c0,2.352,1.777,4.27,3.96,4.27
					c1.341,0,2.576-0.732,3.304-1.959c0.176-0.316,0.088-0.711-0.222-0.947c-0.1-0.063-0.218-0.096-0.338-0.096
					c-0.232,0-0.44,0.125-0.553,0.33c-0.458,0.805-1.298,1.303-2.191,1.303c-1.325,0-2.424-1.053-2.621-2.479h5.892
					c0.368,0,0.656-0.285,0.656-0.652l-0.001-0.086C37.721,4.672,36.033,2.955,33.961,2.955z M31.438,6.33
					c0.357-1.209,1.349-2.006,2.523-2.006c1.15,0,2.146,0.814,2.481,2.006H31.438z"/>
			</g>
		</g>
		<g>
			<path fill="#FFFFFF" d="M25.731,3.09c-0.363-0.148-0.809,0.012-0.971,0.355l-1.955,4.227l0.802,1.736l2.529-5.447
				C26.286,3.629,26.11,3.223,25.731,3.09z"/>
		</g>
		<g>
			<path fill="#FFFFFF" d="M19.826,4.16l-0.331-0.715C19.332,3.102,18.9,2.941,18.538,3.09c-0.394,0.133-0.568,0.539-0.406,0.871
				l0.37,0.807l2.937,6.369c0.028,0.025,0.055,0.074,0.067,0.1c0,0.012,0.014,0.012,0.014,0.012
				c0.015,0.025,0.041,0.049,0.068,0.074c0,0.023,0.013,0.023,0.013,0.035c0.041,0.027,0.068,0.039,0.094,0.063
				c0.014,0,0.014,0,0.014,0c0.041,0.025,0.095,0.063,0.122,0.074c0.014,0,0.014,0,0.014,0s0.014,0,0.014,0.012
				c0.026,0,0.08,0.014,0.107,0.023c0.013,0,0.026,0,0.026,0c0.04,0.014,0.095,0.014,0.137,0.014c0.04,0,0.08,0,0.134-0.014
				c0.013,0,0.026,0,0.026,0c0.041-0.01,0.067-0.023,0.108-0.023c0.014-0.012,0.014-0.012,0.027-0.012
				c0.041-0.012,0.081-0.049,0.108-0.063c0.026-0.012,0.026-0.012,0.026-0.012c0.027-0.023,0.054-0.035,0.081-0.063
				c0.013-0.012,0.013-0.012,0.027-0.035c0.014-0.025,0.054-0.049,0.067-0.074c0.013,0,0.013,0,0.013-0.012
				c0.027-0.025,0.042-0.074,0.056-0.1l0.126-0.27l-0.801-1.732L19.826,4.16z"/>
		</g>
		<g>
			<path fill="#FFFFFF" d="M48.464,4.109c0.229-0.309,0.176-0.725-0.162-0.936c-0.337-0.232-0.783-0.17-1.039,0.148l-1.539,1.92
				l0.916,1.121L48.464,4.109z"/>
		</g>
	</g>
</g>
</svg>
