<?xml version="1.0" encoding="utf-8"?>
<!-- Generator: Adobe Illustrator 16.0.3, SVG Export Plug-In . SVG Version: 6.00 Build 0)  -->
<!DOCTYPE svg PUBLIC "-//W3C//DTD SVG 1.1//EN" "http://www.w3.org/Graphics/SVG/1.1/DTD/svg11.dtd">
<svg version="1.1" id="Capa_1" xmlns="http://www.w3.org/2000/svg" xmlns:xlink="http://www.w3.org/1999/xlink" x="0px" y="0px"
	 width="81.25px" height="18px" viewBox="0 494 81.25 18" enable-background="new 0 494 81.25 18" xml:space="preserve">
<g>
	<g>
		<path fill="#01CD8C" d="M7.421,497.073c-4.092,0-7.421,3.329-7.421,7.421c0,4.093,3.329,7.421,7.421,7.421
			c4.091,0,7.42-3.328,7.42-7.421C14.842,500.402,11.512,497.073,7.421,497.073z M7.421,510.941c-3.556,0-6.448-2.893-6.448-6.447
			c0-3.554,2.893-6.447,6.448-6.447c3.555,0,6.447,2.894,6.447,6.447C13.869,508.049,10.976,510.941,7.421,510.941z"/>
		<path fill="#01CD8C" d="M10.108,502.065l-3.826,3.825l-1.547-1.547c-0.19-0.188-0.498-0.188-0.688,0
			c-0.19,0.191-0.19,0.499,0,0.689l1.891,1.891c0.095,0.094,0.22,0.142,0.345,0.142c0.124,0,0.249-0.048,0.344-0.142
			c0,0,0-0.001,0.001-0.001l4.169-4.17c0.19-0.189,0.19-0.498,0-0.688C10.605,501.875,10.297,501.875,10.108,502.065z"/>
	</g>
</g>
<g>
	<path fill="#01CD8C" stroke="#01CD8C" stroke-width="0.427" stroke-miterlimit="10" d="M20.943,506.37
		c0-2.162,1.78-3.878,4.006-3.878c0.922,0,1.796,0.317,2.48,0.858c0.159,0.111,0.19,0.349,0.047,0.524
		c-0.127,0.144-0.349,0.19-0.524,0.063c-0.557-0.445-1.256-0.699-2.003-0.699c-1.812,0-3.243,1.415-3.243,3.131
		c0,1.749,1.431,3.148,3.243,3.148c0.747,0,1.446-0.255,2.003-0.685c0.175-0.127,0.397-0.079,0.524,0.064
		c0.143,0.175,0.111,0.413-0.079,0.557c-0.652,0.508-1.526,0.826-2.448,0.826C22.723,510.281,20.943,508.564,20.943,506.37z"/>
	<path fill="#01CD8C" stroke="#01CD8C" stroke-width="0.427" stroke-miterlimit="10" d="M32.073,502.492
		c2.051,0,3.688,1.781,3.688,3.895c0,2.114-1.637,3.895-3.688,3.895c-2.035,0-3.688-1.78-3.688-3.895
		C28.385,504.273,30.038,502.492,32.073,502.492z M32.073,509.519c1.59,0,2.925-1.399,2.925-3.132s-1.335-3.147-2.925-3.147
		c-1.589,0-2.925,1.415-2.925,3.147S30.483,509.519,32.073,509.519z"/>
	<path fill="#01CD8C" stroke="#01CD8C" stroke-width="0.427" stroke-miterlimit="10" d="M40.421,502.492
		c2.051,0,3.688,1.781,3.688,3.895c0,2.114-1.637,3.895-3.688,3.895c-2.035,0-3.688-1.78-3.688-3.895
		C36.733,504.273,38.386,502.492,40.421,502.492z M40.421,509.519c1.589,0,2.925-1.399,2.925-3.132s-1.335-3.147-2.925-3.147
		c-1.59,0-2.925,1.415-2.925,3.147S38.831,509.519,40.421,509.519z"/>
	<path fill="#01CD8C" stroke="#01CD8C" stroke-width="0.427" stroke-miterlimit="10" d="M45.558,499.535
		c0-0.206,0.175-0.381,0.381-0.381c0.223,0,0.397,0.175,0.397,0.381v10.364c0,0.207-0.175,0.382-0.397,0.382
		c-0.206,0-0.381-0.175-0.381-0.382V499.535z"/>
	<path fill="#01CD8C" stroke="#01CD8C" stroke-width="0.427" stroke-miterlimit="10" d="M54.319,502.492
		c2.05,0,3.688,1.781,3.688,3.895c0,2.114-1.638,3.895-3.688,3.895c-2.035,0-3.688-1.78-3.688-3.895
		C50.631,504.273,52.284,502.492,54.319,502.492z M54.319,509.519c1.589,0,2.925-1.399,2.925-3.132s-1.335-3.147-2.925-3.147
		c-1.59,0-2.925,1.415-2.925,3.147S52.729,509.519,54.319,509.519z"/>
	<path fill="#01CD8C" stroke="#01CD8C" stroke-width="0.427" stroke-miterlimit="10" d="M64.908,505.672c0-1.319-1.064-2.4-2.4-2.4
		c-1.319,0-2.384,1.081-2.417,2.4v4.228v0.063c-0.016,0.064-0.032,0.128-0.08,0.176c-0.063,0.095-0.174,0.143-0.286,0.143h-0.096
		c-0.111-0.031-0.207-0.111-0.254-0.206c-0.016-0.017-0.016-0.032-0.016-0.048s-0.016-0.031-0.016-0.031v-0.097v-4.228v-0.127
		v-2.655c0-0.207,0.158-0.382,0.381-0.382c0.207,0,0.365,0.175,0.365,0.382v0.747c0.572-0.684,1.446-1.129,2.417-1.129
		c1.749,0,3.163,1.431,3.163,3.164v4.228c0,0.224-0.175,0.382-0.381,0.382s-0.382-0.158-0.382-0.382V505.672z"/>
	<path fill="#01CD8C" stroke="#01CD8C" stroke-width="0.427" stroke-miterlimit="10" d="M66.946,506.402
		c0-2.162,1.685-3.91,3.783-3.91c2.003,0,3.593,1.589,3.751,3.624v0.017v0.048c0,0.206-0.175,0.349-0.381,0.349h-6.391
		c0.08,1.701,1.415,2.989,3.021,2.989c1.033,0,1.987-0.54,2.512-1.415c0.111-0.19,0.35-0.223,0.509-0.127
		c0.174,0.127,0.238,0.35,0.127,0.54c-0.667,1.065-1.828,1.765-3.147,1.765C68.631,510.281,66.946,508.532,66.946,506.402z
		 M67.756,505.782h5.897c-0.254-1.462-1.494-2.526-2.925-2.526C69.266,503.256,68.043,504.305,67.756,505.782z"/>
	<path fill="#01CD8C" stroke="#01CD8C" stroke-width="0.427" stroke-miterlimit="10" d="M75.595,499.535
		c0-0.206,0.175-0.381,0.382-0.381c0.222,0,0.397,0.175,0.397,0.381v7.979c0,0.224-0.175,0.398-0.397,0.398
		c-0.207,0-0.382-0.175-0.382-0.398V499.535z M75.595,509.519c0-0.207,0.175-0.382,0.382-0.382c0.222,0,0.397,0.175,0.397,0.382
		v0.381c0,0.207-0.175,0.382-0.397,0.382c-0.207,0-0.382-0.175-0.382-0.382V509.519z"/>
</g>
</svg>
