<?xml version="1.0" encoding="utf-8"?>
<!-- Generator: Adobe Illustrator 16.0.3, SVG Export Plug-In . SVG Version: 6.00 Build 0)  -->
<!DOCTYPE svg PUBLIC "-//W3C//DTD SVG 1.1//EN" "http://www.w3.org/Graphics/SVG/1.1/DTD/svg11.dtd">
<svg version="1.1" id="Capa_1" xmlns="http://www.w3.org/2000/svg" xmlns:xlink="http://www.w3.org/1999/xlink" x="0px" y="0px"
	 width="595.279px" height="841.891px" viewBox="0 0 595.279 841.891" enable-background="new 0 0 595.279 841.891"
	 xml:space="preserve">
<g>
	<g>
		<path fill="#FFFFFF" d="M151.932,445.479c-49.896,0-90.518,40.592-90.518,90.517c0,49.896,40.592,90.518,90.518,90.518
			c49.896,0,90.517-40.592,90.517-90.518C242.419,486.07,201.828,445.479,151.932,445.479z M151.932,611.969
			c-41.886,0-76.003-34.087-76.003-75.974c0-41.886,34.086-75.974,76.003-75.974c41.916,0,75.973,34.088,75.973,75.974
			C227.905,577.882,193.818,611.969,151.932,611.969z M187.313,296.122h240.898v-15.056H187.313V296.122z M187.313,372.396h240.898
			v-15.057H187.313V372.396z M133.172,669.092l6.956-2.86c3.614-1.386,8.25-3.013,12.135-3.013c4.578,0,10.269,2.02,14.635,3.734
			l6.775,2.771c8.161,3.461,17.375,7.377,26.288,7.377c3.613,0,7.047-0.661,10.147-1.958c11.925-4.969,17.255-18.277,21.953-30.081
			c2.98-7.468,6.082-15.206,10.298-19.422c0.903-0.935,2.108-1.839,3.704-2.862c1.837-1.113,3.945-2.198,4.246-2.378
			c3.282-1.597,6.925-3.072,10.72-4.578c5.269-2.106,10.75-4.425,15.779-7.316h261.855c3.645,0,16.352-0.904,27.192-12.556
			c9.997-10.752,15.055-26.982,15.055-48.301v-75.552c0-6.385-4.847-11.564-10.809-11.564h-91.934V232.615
			c0-49.625-30.473-52.125-36.586-52.125l-265.078,0.211c-14.153,0-25.385,4.818-33.395,14.333
			c-11.925,14.243-11.413,33.334-11.323,35.262v171.76c-0.452-0.181-0.903-0.332-1.355-0.542
			c-8.703-3.673-17.676-7.468-26.529-7.468c-3.644,0-7.077,0.663-10.177,1.958c-11.925,4.969-17.225,18.278-21.922,30.023
			c-3.011,7.497-6.113,15.266-10.329,19.512c-3.916,3.915-11.052,6.774-18.64,9.817c-11.984,4.788-25.595,10.206-30.714,22.673
			c-5.15,12.467,0.692,25.896,5.931,37.943c3.222,7.406,6.233,14.392,6.264,19.904c0.03,5.992-3.252,13.701-6.414,21.167
			c-4.908,11.654-10.479,24.843-5.511,36.708c4.969,11.925,18.279,17.254,30.022,21.952c4.004,1.595,8.551,3.463,12.466,5.57
			c0.18,0.151,0.391,0.33,0.632,0.451l4.908,3.133c0.512,0.391,1.055,0.753,1.476,1.173c3.945,3.915,6.806,11.083,9.817,18.67
			c4.788,11.984,10.208,25.597,22.675,30.714c3.222,1.327,6.745,1.987,10.449,1.987c9.215,0,18.398-3.975,27.251-7.828
			L133.172,669.092z M278.313,587.607c-2.801,6.775-12.889,10.81-22.675,14.725c-8.612,3.434-17.496,6.986-23.578,13.07
			c-6.324,6.353-9.967,15.507-13.521,24.359c-4.005,9.967-7.769,19.393-14.033,22.014c-6.293,2.618-18.338-2.47-25.504-5.511
			c-8.732-3.704-17.796-7.529-26.831-7.529c-8.551,0.029-17.345,3.855-25.866,7.529c-9.485,4.124-20.145,8.311-26.408,5.751
			c-6.775-2.802-10.811-12.889-14.725-22.704c-3.434-8.613-6.986-17.497-13.069-23.519c-6.354-6.323-15.507-9.997-24.421-13.55
			c-9.937-3.976-19.302-7.739-21.922-14.032c-2.62-6.265,1.326-15.629,5.51-25.506c3.704-8.763,7.559-17.855,7.529-26.829
			c-0.03-8.583-3.854-17.346-7.559-25.837c-4.216-9.667-8.551-19.634-5.751-26.438c2.77-6.774,12.857-10.812,22.645-14.725
			c8.612-3.434,17.495-6.956,23.578-13.04c6.354-6.383,9.997-15.508,13.52-24.359c3.975-9.967,7.77-19.394,14.033-22.013
			c1.415-0.632,2.891-0.903,4.637-0.903c5.902,0,13.551,3.222,20.958,6.354c8.764,3.704,17.797,7.527,26.831,7.527
			c8.551,0,17.314-3.823,25.806-7.527c9.515-4.125,20.205-8.28,26.438-5.721c6.775,2.801,10.811,12.858,14.754,22.736
			c3.433,8.581,6.986,17.465,13.039,23.487c6.324,6.322,15.478,9.967,24.36,13.55c9.967,4.004,19.393,7.769,22.012,14.031
			c2.62,6.295-1.325,15.659-5.51,25.536c-3.704,8.763-7.559,17.857-7.529,26.799c0.031,8.554,3.825,17.315,7.559,25.837
			C276.777,570.836,281.113,580.803,278.313,587.607z M441.641,197.805c7.528,0,20.146,4.517,20.146,34.811v320.122
			c-0.03,0.693-0.602,17.286,11.081,31.077c1.807,2.137,4.186,4.697,7.167,7.376h-187.87c3.825-11.923-1.385-24.541-6.263-35.772
			c-3.253-7.468-6.324-14.514-6.354-20.086c-0.031-5.962,3.221-13.609,6.384-21.107c4.938-11.653,10.539-24.843,5.571-36.768
			c-4.968-11.925-18.278-17.225-30.022-21.922c-7.499-3.011-15.237-6.111-19.513-10.328c-3.945-3.944-6.806-11.082-9.817-18.669
			c-4.787-11.985-10.208-25.596-22.704-30.715c-3.222-1.415-6.745-2.078-10.449-2.078c-9.214,0-18.398,4.005-27.312,7.859
			c-7.468,3.252-14.514,6.324-20.115,6.324c-0.994,0-2.258-0.512-3.343-0.662V229.844c0-0.15-0.602-13.972,7.227-23.307
			c4.728-5.661,11.834-8.521,21.079-8.521L441.641,197.805z M564.499,547.619c0,16.621-3.493,28.787-10.358,36.165
			c-6.294,6.774-13.762,7.347-15.87,7.376h-15.056c-19.212,0-32.069-11.833-38.062-18.91c-7.137-8.4-6.926-18.879-6.926-19.12
			v-75.311h86.271V547.619z"/>
	</g>
</g>
</svg>
