<?xml version="1.0" encoding="utf-8"?>
<!-- Generator: Adobe Illustrator 16.0.3, SVG Export Plug-In . SVG Version: 6.00 Build 0)  -->
<!DOCTYPE svg PUBLIC "-//W3C//DTD SVG 1.1//EN" "http://www.w3.org/Graphics/SVG/1.1/DTD/svg11.dtd">
<svg version="1.1" id="Capa_1" xmlns="http://www.w3.org/2000/svg" xmlns:xlink="http://www.w3.org/1999/xlink" x="0px" y="0px"
	 width="18px" height="18px" viewBox="0 494 18 18" enable-background="new 0 494 18 18" xml:space="preserve">
<g>
	<g>
		<path fill="#FF4251" d="M8.844,501.708c-0.413,0-0.685,0.344-0.685,0.685v4.119c0,0.413,0.272,0.687,0.685,0.687
			s0.686-0.344,0.686-0.687v-4.119C9.53,501.98,9.257,501.708,8.844,501.708z"/>
		<circle fill="#FF4251" cx="8.844" cy="509.258" r="0.686"/>
		<path fill="#FF4251" d="M17.357,509.666l-7.415-12.01c-0.616-0.963-1.579-0.963-2.196,0l-7.411,12.01
			C-0.417,510.969,0.132,512,1.638,512h14.344C17.562,512,18.112,510.973,17.357,509.666z M16.192,511.314H1.502
			c-0.754,0-1.03-0.549-0.618-1.166l7.551-12.216c0.205-0.414,0.618-0.414,0.894,0l7.551,12.216
			C17.221,510.766,16.945,511.314,16.192,511.314z"/>
	</g>
</g>
</svg>
