<?xml version="1.0" encoding="utf-8"?>
<!-- Generator: Adobe Illustrator 16.0.3, SVG Export Plug-In . SVG Version: 6.00 Build 0)  -->
<!DOCTYPE svg PUBLIC "-//W3C//DTD SVG 1.1//EN" "http://www.w3.org/Graphics/SVG/1.1/DTD/svg11.dtd">
<svg version="1.1" id="Layer_1" xmlns="http://www.w3.org/2000/svg" xmlns:xlink="http://www.w3.org/1999/xlink" x="0px" y="0px"
	 width="21px" height="28px" viewBox="0 0 21 28" enable-background="new 0 0 21 28" xml:space="preserve">
<g>
	<g>
		<g>
			<path fill="#FF3000" d="M5.204,18.875v7.57c0,0.604,0.376,0.777,0.835,0.383l3.645-3.123c0.459-0.395,1.211-0.395,1.671,0
				l3.644,3.123c0.46,0.395,0.835,0.222,0.835-0.383V18.87l-5.146-1.433L5.204,18.875z"/>
		</g>
		<path fill="#FFCC00" d="M10.074,0.604c0.244-0.342,0.646-0.342,0.89,0l0.851,1.183c0.245,0.341,0.741,0.446,1.104,0.235
			l1.258-0.735c0.362-0.212,0.729-0.049,0.813,0.362l0.296,1.426c0.085,0.41,0.496,0.709,0.912,0.664l1.448-0.16
			c0.417-0.046,0.686,0.252,0.596,0.662l-0.31,1.423c-0.09,0.41,0.164,0.851,0.564,0.978l1.387,0.443
			c0.399,0.127,0.523,0.508,0.275,0.847l-0.861,1.175c-0.249,0.337-0.196,0.843,0.117,1.121l1.087,0.969
			c0.313,0.279,0.272,0.68-0.093,0.887l-1.265,0.722c-0.364,0.207-0.521,0.691-0.349,1.073l0.599,1.328
			c0.173,0.381-0.027,0.729-0.445,0.771L17.5,16.121c-0.418,0.041-0.757,0.418-0.756,0.838l0.007,1.456
			c0.003,0.421-0.321,0.655-0.721,0.524l-1.382-0.458c-0.398-0.132-0.862,0.075-1.031,0.46l-0.586,1.332
			c-0.168,0.385-0.561,0.469-0.871,0.187l-1.076-0.981c-0.311-0.281-0.818-0.281-1.13,0L8.877,20.46
			c-0.31,0.282-0.702,0.198-0.871-0.187L7.42,18.941c-0.169-0.385-0.632-0.592-1.03-0.46l-1.383,0.458
			c-0.398,0.131-0.723-0.104-0.721-0.524l0.007-1.456c0.003-0.42-0.337-0.797-0.755-0.838L2.09,15.976
			c-0.418-0.042-0.618-0.39-0.446-0.771l0.599-1.328c0.173-0.382,0.017-0.866-0.348-1.073L0.63,12.082
			c-0.365-0.207-0.407-0.607-0.094-0.887l1.087-0.969C1.937,9.948,1.99,9.442,1.741,9.105L0.88,7.931
			c-0.248-0.339-0.125-0.72,0.274-0.847l1.388-0.443c0.399-0.127,0.653-0.567,0.564-0.978L2.797,4.24
			c-0.09-0.41,0.179-0.708,0.595-0.662l1.448,0.16c0.416,0.045,0.828-0.254,0.913-0.664l0.296-1.426
			C6.134,1.237,6.5,1.074,6.862,1.286l1.257,0.735c0.362,0.211,0.859,0.105,1.104-0.235L10.074,0.604z"/>
	</g>
</g>
</svg>
