<?xml version="1.0" encoding="utf-8"?>
<!-- Generator: Adobe Illustrator 20.0.0, SVG Export Plug-In . SVG Version: 6.00 Build 0)  -->
<svg version="1.1" id="Capa_1" xmlns="http://www.w3.org/2000/svg" xmlns:xlink="http://www.w3.org/1999/xlink" x="0px" y="0px"
	 viewBox="0 0 27.3 26.6" style="enable-background:new 0 0 27.3 26.6;" xml:space="preserve">
<style type="text/css">
	.st0{fill:none;stroke:url(#SVGID_1_);stroke-width:1.2;stroke-linecap:round;stroke-linejoin:round;stroke-miterlimit:10;}
</style>
<linearGradient id="SVGID_1_" gradientUnits="userSpaceOnUse" x1="0.9354" y1="13.3033" x2="26.4264" y2="13.3033">
	<stop  offset="0.1902" style="stop-color:#00CA5F"/>
	<stop  offset="1" style="stop-color:#25DCA1"/>
</linearGradient>
<path class="st0" d="M18.9,10.6l6.9-0.2L20,14.3c0,0-1.3,1.1-0.9,2.6l2.5,8.7L14.7,19c-1-0.9-2-0.1-2-0.1l-7.1,6.7l2.7-8.7
	c0.1-0.4,0.2-0.7,0.1-1c-0.1-1.1-0.9-1.7-0.9-1.7l-6.1-3.8l7.1,0.2c1.6,0,2.4-1.9,2.4-1.9L13.7,1l2.6,7.7
	C16.3,8.8,16.9,10.6,18.9,10.6z"/>
</svg>
